<?xml version="1.0" standalone="no"?>
<!DOCTYPE svg PUBLIC "-//W3C//DTD SVG 20010904//EN"
 "http://www.w3.org/TR/2001/REC-SVG-20010904/DTD/svg10.dtd">
<svg version="1.0" xmlns="http://www.w3.org/2000/svg"
 width="300.000000pt" height="300.000000pt" viewBox="0 0 300.000000 300.000000"
 preserveAspectRatio="xMidYMid meet">
<metadata>
Created by potrace 1.11, written by Peter Selinger 2001-2013
</metadata>
<g transform="translate(0.000000,300.000000) scale(0.100000,-0.100000)"
fill="#000000" stroke="none">
<path d="M1318 2995 c-2 -1 -26 -5 -53 -9 -66 -7 -157 -39 -209 -72 -104 -67
-133 -154 -140 -424 -1 -30 -9 -69 -18 -86 -10 -17 -20 -60 -24 -96 -6 -56 -3
-70 19 -115 16 -31 28 -74 31 -115 19 -231 91 -413 207 -529 32 -32 53 -59 46
-59 -21 0 -97 -70 -97 -89 0 -10 -9 -30 -20 -44 -12 -14 -29 -45 -40 -69 -10
-24 -33 -57 -50 -73 -45 -42 -59 -75 -66 -147 -3 -35 -8 -72 -9 -83 -2 -11 -4
-45 -4 -76 l-1 -56 -67 2 c-38 2 -169 6 -293 9 -256 7 -473 17 -480 21 -3 1
-15 -1 -27 -6 -37 -14 -29 -63 31 -190 120 -255 140 -299 188 -404 28 -60 65
-140 84 -176 20 -41 31 -74 27 -88 l-5 -21 1267 0 c1227 0 1267 1 1263 18 -3
11 2 23 12 30 27 17 51 79 52 135 1 56 -24 141 -50 170 -15 17 -12 30 41 186
60 175 66 219 43 276 -13 30 -13 40 2 86 16 51 16 51 -7 71 -17 13 -36 18 -60
16 -33 -3 -37 -7 -51 -50 -8 -27 -17 -48 -20 -48 -3 0 -5 42 -5 93 0 113 -7
158 -44 319 -12 47 -18 99 -15 115 7 33 -10 83 -28 83 -8 0 -22 15 -32 34 -10
18 -29 39 -42 46 -22 12 -27 25 -27 70 0 8 8 59 17 112 10 55 14 118 11 145
-3 26 -7 80 -9 118 -4 79 -24 137 -64 178 -35 37 -57 48 -168 85 -115 39 -151
44 -299 44 -66 0 -128 2 -137 4 -14 4 -16 22 -17 127 0 67 -4 143 -9 169 -5
26 -7 50 -4 53 3 3 18 5 34 5 38 0 32 24 -6 28 -25 3 -26 6 -23 50 4 55 -11
122 -27 122 -7 0 -10 -14 -8 -40 7 -71 -5 -79 -39 -24 -60 94 -95 118 -224
150 -59 14 -345 30 -357 19z"/>
</g>
</svg>
